<?xml version="1.0" standalone="no"?>
<!DOCTYPE svg PUBLIC "-//W3C//DTD SVG 20010904//EN"
 "http://www.w3.org/TR/2001/REC-SVG-20010904/DTD/svg10.dtd">
<svg version="1.0" xmlns="http://www.w3.org/2000/svg"
 width="567.000000pt" height="567.000000pt" viewBox="0 0 567.000000 567.000000"
 preserveAspectRatio="xMidYMid meet">
<metadata>
Created by potrace 1.11, written by Peter Selinger 2001-2013
</metadata>
<g transform="translate(0.000000,567.000000) scale(0.100000,-0.100000)"
fill="#000000" stroke="none">
<path d="M4190 5523 c0 -14 45 -29 70 -23 21 5 22 7 8 13 -10 3 -24 4 -32 1
-8 -3 -17 -1 -21 5 -7 13 -25 15 -25 4z"/>
<path d="M4085 5511 c-7 -12 12 -24 25 -16 11 7 4 25 -10 25 -5 0 -11 -4 -15
-9z"/>
<path d="M4145 5510 c-4 -7 1 -13 12 -16 15 -4 19 -12 15 -30 -3 -18 0 -24 13
-24 12 0 16 6 12 20 -3 10 0 21 7 24 6 3 5 5 -3 5 -8 1 -22 8 -32 17 -12 11
-19 12 -24 4z"/>
<path d="M4450 5500 c0 -5 5 -10 10 -10 6 0 10 5 10 10 0 6 -4 10 -10 10 -5 0
-10 -4 -10 -10z"/>
<path d="M4000 5493 c0 -5 5 -15 10 -23 9 -13 11 -13 20 0 15 22 12 30 -10 30
-11 0 -20 -3 -20 -7z"/>
<path d="M3808 5473 c6 -2 18 -2 25 0 6 3 1 5 -13 5 -14 0 -19 -2 -12 -5z"/>
<path d="M3851 5464 c-7 -8 -11 -17 -9 -20 3 -2 13 5 23 16 10 11 14 20 9 20
-5 -1 -15 -8 -23 -16z"/>
<path d="M4050 5470 c0 -5 5 -10 10 -10 6 0 10 5 10 10 0 6 -4 10 -10 10 -5 0
-10 -4 -10 -10z"/>
<path d="M4230 5460 c0 -11 -7 -20 -15 -20 -8 0 -15 -9 -15 -20 0 -35 29 -23
36 15 5 31 9 34 30 29 15 -4 24 -2 24 5 0 6 -13 11 -30 11 -23 0 -30 -4 -30
-20z"/>
<path d="M4080 5438 c0 -25 4 -28 33 -29 17 -1 35 -1 40 0 4 0 7 -5 8 -11 0
-7 4 -4 8 6 14 35 -8 61 -51 61 -35 0 -38 -2 -38 -27z m70 2 c0 -5 -13 -10
-30 -10 -16 0 -30 5 -30 10 0 6 14 10 30 10 17 0 30 -4 30 -10z"/>
<path d="M4320 5460 c0 -5 6 -10 14 -10 8 0 18 5 21 10 3 6 -3 10 -14 10 -12
0 -21 -4 -21 -10z"/>
<path d="M3920 5439 c0 -5 5 -7 10 -4 6 3 10 8 10 11 0 2 -4 4 -10 4 -5 0 -10
-5 -10 -11z"/>
<path d="M4610 5440 c0 -5 5 -10 10 -10 6 0 10 5 10 10 0 6 -4 10 -10 10 -5 0
-10 -4 -10 -10z"/>
<path d="M3880 5430 c0 -5 5 -10 10 -10 6 0 10 5 10 10 0 6 -4 10 -10 10 -5 0
-10 -4 -10 -10z"/>
<path d="M3970 5420 c0 -5 4 -10 9 -10 6 0 13 5 16 10 3 6 -1 10 -9 10 -9 0
-16 -4 -16 -10z"/>
<path d="M4320 5414 c0 -9 5 -14 12 -12 18 6 21 28 4 28 -9 0 -16 -7 -16 -16z"/>
<path d="M3685 5410 c-3 -5 1 -10 10 -10 9 0 13 5 10 10 -3 6 -8 10 -10 10 -2
0 -7 -4 -10 -10z"/>
<path d="M4250 5410 c-12 -8 -9 -10 13 -10 15 0 27 5 27 10 0 13 -20 13 -40 0z"/>
<path d="M4428 5403 c7 -3 16 -2 19 1 4 3 -2 6 -13 5 -11 0 -14 -3 -6 -6z"/>
<path d="M1003 5382 l-1003 -2 0 -1433 c0 -907 4 -1437 10 -1447 7 -12 10 -12
10 -1 0 7 6 11 15 7 9 -3 15 0 15 9 0 22 -20 69 -33 77 -7 5 -2 8 14 8 26 0
26 -1 33 -97 4 -54 15 -143 25 -198 19 -101 19 -128 2 -84 -10 24 -10 24 -10
2 -1 -18 -7 -23 -27 -23 -14 0 -23 4 -20 9 7 10 -24 25 -33 16 -3 -3 1 -10 9
-15 10 -7 11 -10 3 -10 -10 0 -13 -227 -13 -1100 l0 -1100 1103 0 c606 0 1095
4 1087 9 -8 5 -37 12 -65 15 -103 14 -114 17 -108 32 3 9 13 12 25 8 22 -7 42
-9 143 -19 94 -8 166 -25 159 -37 -4 -6 289 -9 810 -7 729 1 815 3 804 17 -7
8 -12 17 -10 19 1 1 -1 2 -5 1 -5 -2 -7 -6 -6 -10 2 -5 -21 -9 -50 -10 -28 0
-71 -2 -94 -3 -24 0 -43 2 -43 6 0 11 -72 19 -89 9 -13 -7 -10 -10 14 -11 18
-1 23 -3 12 -6 -10 -3 -35 3 -55 13 -23 11 -58 17 -92 16 -33 -1 -48 2 -37 6
10 4 18 12 18 17 -1 6 4 10 9 9 6 -1 49 -2 98 -3 60 -1 82 -4 72 -11 -12 -8
-10 -10 8 -10 13 0 21 4 17 9 -3 6 118 10 307 10 l312 1 -22 -23 c-19 -18 -24
-19 -31 -8 -8 12 -16 12 -56 1 -26 -7 -54 -13 -61 -13 -8 0 -14 -6 -14 -14 0
-11 95 -13 532 -13 414 0 529 3 520 12 -21 21 -13 28 29 28 26 0 50 -7 66 -20
30 -24 69 -26 77 -5 7 19 30 19 46 0 14 -17 110 -21 110 -5 0 6 9 10 20 10 11
0 20 4 20 9 0 5 7 12 16 15 10 4 13 2 8 -7 -4 -6 9 5 29 25 l37 37 -1 1128 c0
620 -3 1122 -6 1116 -5 -15 -33 -18 -33 -4 0 5 9 13 20 16 17 6 20 15 20 77
l0 70 -72 -7 c-40 -3 -102 -7 -138 -8 -47 -2 -64 -6 -62 -15 2 -10 -2 -10 -17
-3 -14 8 -21 7 -24 -2 -4 -9 -6 -9 -6 1 -1 14 -31 17 -31 2 0 -5 -7 -10 -15
-10 -8 0 -15 4 -15 9 0 5 -22 3 -50 -4 -29 -8 -52 -9 -56 -4 -8 14 -24 11 -24
-6 0 -21 -26 -19 -35 2 -6 16 -8 16 -18 3 -12 -15 -22 -17 -107 -26 -33 -3
-40 -1 -25 5 19 9 19 10 -2 10 -14 1 -23 -5 -23 -14 0 -8 -4 -15 -10 -15 -5 0
-10 4 -10 10 0 21 -46 4 -59 -22 -15 -32 -36 -35 -63 -11 -18 16 -19 15 -16
-20 1 -20 6 -37 11 -37 4 0 5 10 1 22 -6 21 -6 21 10 5 23 -23 30 -22 51 7 17
23 20 23 32 8 7 -9 13 -12 13 -6 0 13 114 7 142 -7 13 -7 25 -2 48 21 30 30
46 25 38 -11 -2 -8 3 -13 12 -10 47 11 92 10 87 -1 -3 -8 5 -13 22 -14 14 -1
20 1 14 3 -7 3 -13 11 -13 19 0 16 45 19 55 4 4 -6 11 -8 16 -4 6 3 9 -1 7 -9
-2 -9 1 -16 5 -16 4 0 15 -7 23 -16 18 -18 30 -19 39 -4 4 5 -7 15 -24 22 -37
14 -40 27 -6 27 14 0 25 -4 25 -10 0 -17 28 -11 33 8 3 9 5 0 6 -20 0 -21 6
-38 12 -38 6 0 9 6 6 14 -4 11 1 14 21 13 15 -1 27 3 27 10 0 6 4 15 9 20 5 5
6 3 2 -4 -4 -8 -1 -13 8 -13 9 0 16 5 16 10 0 6 9 10 21 10 24 0 16 -17 -15
-31 -19 -8 -18 -9 9 -8 17 1 35 0 40 0 15 -3 -52 -30 -72 -30 -25 0 -42 -5
-88 -26 -35 -16 -71 -18 -295 -20 -183 -1 -263 2 -285 11 -40 16 -135 -1 -136
-25 0 -10 -2 -12 -6 -3 -5 13 -35 16 -47 5 -4 -4 -21 -8 -39 -10 -18 -1 -45
-5 -62 -8 -16 -4 -92 -9 -168 -11 -76 -2 -142 -6 -148 -9 -5 -4 -9 -2 -9 4 0
5 5 13 10 16 6 4 24 34 41 68 17 34 42 76 55 94 13 17 24 37 24 43 0 8 9 10
24 6 29 -7 44 21 27 52 -12 23 -5 32 26 32 13 0 23 5 23 10 0 6 -15 10 -32 10
-31 1 -32 1 -14 15 11 8 28 15 37 15 10 0 21 5 24 10 4 6 3 10 -2 9 -22 -4
-20 4 9 31 20 20 35 27 42 21 11 -9 51 11 41 21 -7 7 213 48 257 48 20 0 41
-6 45 -12 4 -7 27 -13 51 -13 27 0 42 4 42 13 0 8 21 12 68 13 64 1 95 3 155
14 15 2 27 0 27 -5 0 -6 10 -10 23 -10 16 0 18 3 9 9 -11 7 -10 10 3 15 9 3
28 6 41 6 15 0 23 4 19 10 -4 6 -18 9 -32 8 -19 -2 -27 2 -29 15 -2 16 2 18
29 13 77 -13 217 -18 217 -8 0 6 8 11 18 10 9 0 47 4 84 8 l68 7 -3 127 -2
127 -37 54 c-20 30 -59 79 -88 109 -125 134 -164 229 -178 426 -7 108 -12 126
-36 165 -16 25 -56 65 -90 91 -53 40 -63 44 -73 31 -7 -9 -19 -13 -29 -9 -14
5 -15 15 -9 63 6 46 3 66 -16 115 -13 32 -28 58 -34 58 -6 0 -26 -16 -45 -35
-38 -39 -48 -41 -142 -21 -38 8 -78 13 -90 11 -43 -6 -153 -49 -164 -64 -6 -8
-16 -11 -22 -7 -6 4 -37 -4 -69 -17 -32 -14 -83 -32 -113 -41 -30 -9 -64 -22
-75 -28 -23 -13 -75 -27 -124 -34 -18 -3 -36 -5 -40 -6 -3 -1 -19 4 -34 10
-16 7 -60 10 -104 8 -51 -3 -71 -1 -62 6 15 10 -30 7 -161 -12 -41 -6 -85 -11
-98 -11 -13 1 -22 -5 -21 -12 4 -30 -3 -37 -35 -37 -29 0 -34 4 -42 33 -8 29
-16 34 -87 57 -77 25 -92 35 -59 43 10 2 1 8 -25 16 -24 6 -43 17 -43 24 0 12
-99 48 -145 53 -79 10 -222 2 -305 -16 -52 -11 -111 -20 -131 -20 -21 0 -113
-14 -205 -31 -150 -28 -182 -31 -283 -25 -63 3 -135 13 -160 21 -103 32 -571
58 -639 36 -32 -11 -46 -10 -97 7 -189 64 -271 73 -405 46 -41 -8 -134 -18
-206 -23 -125 -7 -133 -9 -200 -46 -38 -20 -96 -55 -129 -76 l-60 -39 40 35
c61 54 184 126 240 141 28 8 82 14 122 14 40 0 96 6 126 14 106 28 214 30 321
7 55 -12 102 -23 105 -25 3 -3 92 -7 196 -11 237 -8 506 -30 650 -52 137 -22
285 -22 322 0 4 3 31 8 58 11 28 4 118 17 200 31 351 56 479 58 592 6 141 -63
326 -104 540 -116 193 -12 506 44 608 109 53 33 134 58 216 67 79 8 97 7 147
-11 31 -11 59 -20 62 -20 3 0 20 14 39 30 18 17 37 30 41 30 10 0 43 -80 64
-151 13 -46 23 -61 57 -84 57 -40 132 -125 158 -180 14 -30 23 -74 27 -128 15
-211 49 -300 155 -407 41 -40 86 -92 101 -114 l28 -41 0 1143 0 1142 -677 1
c-373 0 -1198 1 -1833 2 -635 1 -1606 1 -2157 -1z m4622 -2522 c-3 -5 -11 -10
-16 -10 -6 0 -7 5 -4 10 3 6 11 10 16 10 6 0 7 -4 4 -10z m-490 -76 c-11 -8
-26 -12 -33 -9 -8 3 -19 6 -25 6 -14 2 40 16 63 17 11 1 10 -3 -5 -14z m-78
-10 c-3 -3 -12 -4 -19 -1 -8 3 -5 6 6 6 11 1 17 -2 13 -5z m148 -4 c-3 -5 -14
-10 -23 -9 -14 0 -13 2 3 9 27 11 27 11 20 0z m-180 -30 c-3 -5 -12 -10 -18
-10 -7 0 -6 4 3 10 19 12 23 12 15 0z m-60 -10 c-3 -5 -16 -10 -28 -9 -20 1
-20 2 3 9 14 4 26 8 28 9 2 1 0 -3 -3 -9z m-60 -10 c-3 -5 -10 -10 -16 -10 -5
0 -9 5 -9 10 0 6 7 10 16 10 8 0 12 -4 9 -10z m-4852 -107 c-7 -2 -21 -2 -30
0 -10 3 -5 5 12 5 17 0 24 -2 18 -5z m173 -9 c-3 -9 -6 -18 -6 -20 0 -3 -4 -3
-10 1 -11 7 -2 35 12 35 6 0 7 -7 4 -16z m32 -21 c1 -37 1 -37 -11 -13 -11 21
-7 43 9 50 0 0 1 -17 2 -37z m-232 -40 c-10 -10 -19 5 -10 18 6 11 8 11 12 0
2 -7 1 -15 -2 -18z m194 -44 c0 -5 4 -8 9 -5 5 4 12 0 14 -6 3 -8 6 -6 6 5 1
13 19 26 22 15 0 -2 4 -52 9 -113 5 -60 12 -130 16 -155 7 -41 6 -44 -9 -32
-41 35 -110 302 -77 302 6 0 10 -5 10 -11z m5230 -49 c-8 -5 -19 -10 -25 -10
-5 0 -3 5 5 10 8 5 20 10 25 10 6 0 3 -5 -5 -10z m-410 -46 c0 -2 -18 -4 -40
-4 -22 0 -40 3 -40 8 0 4 18 6 40 4 22 -2 40 -6 40 -8z m200 -4 c0 -5 -4 -10
-9 -10 -6 0 -13 5 -16 10 -3 6 1 10 9 10 9 0 16 -4 16 -10z m372 -24 c6 4 9 1
7 -5 -7 -19 -24 -14 -26 6 -2 10 0 12 3 5 3 -6 10 -9 16 -6z m-1372 -414 c0
-4 20 -6 45 -4 53 5 115 -5 115 -18 0 -15 -152 -2 -169 15 -10 10 -11 15 -3
15 7 0 12 -3 12 -8z m246 -17 c9 -8 21 -15 27 -15 7 0 3 7 -7 15 -19 15 -19
15 3 15 25 0 61 -17 61 -28 0 -15 -58 -30 -69 -19 -6 6 -14 7 -18 2 -5 -4 -3
-10 3 -12 7 -2 10 -12 7 -22 -5 -21 -37 -18 -65 7 -12 10 -21 12 -30 5 -8 -7
-45 -9 -91 -5 -95 6 -83 22 16 22 68 0 106 17 92 40 -10 16 55 12 71 -5z
m-338 -52 c-10 -2 -26 -2 -35 0 -10 3 -2 5 17 5 19 0 27 -2 18 -5z m165 -40
c-7 -2 -19 -2 -25 0 -7 3 -2 5 12 5 14 0 19 -2 13 -5z m674 -49 c-3 -3 -12 -4
-19 -1 -8 3 -5 6 6 6 11 1 17 -2 13 -5z m-767 -24 c0 -5 -7 -10 -16 -10 -8 0
-12 5 -9 10 3 6 10 10 16 10 5 0 9 -4 9 -10z m710 -12 c0 -5 5 -8 11 -8 5 0 7
5 3 11 -4 7 0 9 13 5 10 -3 62 -7 116 -8 53 -1 97 -5 97 -9 0 -15 -154 -20
-415 -14 -148 4 -280 6 -292 6 -13 0 -23 3 -23 7 0 4 56 7 125 7 69 0 133 3
143 7 23 9 222 5 222 -4z m-670 -9 c0 -8 5 -8 15 1 11 10 18 10 29 1 10 -8 16
-9 19 -1 3 6 4 5 3 -2 -2 -9 -22 -13 -59 -14 -68 -2 -77 15 -14 25 4 0 7 -4 7
-10z m-451 -6 c-3 -18 2 -27 9 -16 4 6 20 14 35 17 21 4 27 1 27 -13 0 -18 18
-41 33 -41 4 0 5 4 2 10 -3 6 1 7 9 4 9 -3 13 -10 10 -15 -3 -5 2 -9 10 -9 9
0 16 5 16 10 0 6 6 10 14 10 17 0 15 -28 -4 -40 -19 -12 87 -16 284 -10 l171
5 -200 8 c-111 4 -209 5 -218 1 -13 -4 -16 -2 -11 9 6 17 93 29 109 15 15 -13
35 -9 68 14 21 15 32 18 35 10 5 -15 52 -16 52 -2 0 7 6 8 17 1 11 -6 24 -6
36 1 14 7 17 7 13 -1 -4 -6 0 -11 9 -11 9 0 13 -4 10 -10 -3 -5 1 -10 9 -10 9
0 16 3 16 8 0 8 178 6 202 -3 23 -9 53 -1 51 13 -4 15 14 16 19 1 5 -16 180
-18 185 -1 3 6 9 12 14 12 5 0 8 -6 6 -12 -1 -9 11 -12 41 -10 32 2 43 -1 40
-10 -4 -10 -48 -13 -182 -15 -146 -1 -181 -4 -195 -17 -10 -9 -34 -16 -53 -16
-27 0 -37 -5 -41 -19 -4 -17 -12 -19 -61 -15 -33 3 -72 0 -94 -7 -21 -8 -91
-14 -167 -15 -296 -3 -353 -6 -305 -15 25 -4 101 -5 169 -3 149 7 241 -2 241
-22 0 -17 -12 -18 -28 -2 -9 9 -12 9 -12 0 0 -10 -5 -10 -20 -2 -17 9 -20 8
-20 -8 0 -16 -7 -18 -52 -15 -29 1 -65 4 -80 4 -15 1 -26 5 -23 9 2 3 -19 3
-48 0 -33 -5 -74 -2 -112 7 -59 14 -115 10 -115 -8 0 -5 -4 -9 -10 -9 -5 0
-10 8 -10 18 0 24 -19 42 -36 35 -8 -3 -12 -8 -10 -12 3 -4 -4 -7 -14 -8 -19
-2 -19 7 2 76 7 22 13 29 18 21 6 -10 15 -6 34 14 31 30 41 33 32 10 -5 -14
-4 -15 9 -4 8 7 15 18 15 25 0 6 10 17 23 23 12 6 16 11 8 11 -11 1 -11 4 -1
16 14 16 21 19 19 8z m366 -3 c3 -5 1 -10 -4 -10 -6 0 -11 5 -11 10 0 6 2 10
4 10 3 0 8 -4 11 -10z m843 -34 c76 -4 97 -11 68 -22 -30 -11 -147 3 -164 19
-14 15 -13 16 4 12 10 -2 52 -6 92 -9z m-2248 -62 c0 -8 -5 -12 -10 -9 -6 4
-8 11 -5 16 9 14 15 11 15 -7z m-1193 0 c-3 -3 -12 -4 -19 -1 -8 3 -5 6 6 6
11 1 17 -2 13 -5z m1144 -53 c0 8 4 5 9 -6 8 -18 9 -18 9 -2 1 12 7 17 18 15
13 -2 17 -18 21 -75 2 -49 0 -73 -7 -73 -6 0 -11 9 -11 20 0 11 -3 19 -7 19
-23 -4 -31 3 -26 22 5 19 3 21 -25 14 -33 -7 -70 15 -58 34 3 5 -4 7 -15 4
-20 -6 -20 -7 -5 -18 24 -18 20 -27 -11 -23 -20 2 -28 9 -28 22 0 14 12 22 48
31 26 7 50 15 54 18 3 4 12 2 20 -4 10 -9 13 -8 14 2z m2728 -160 c7 -5 9 -11
5 -14 -5 -3 -15 1 -22 9 -14 16 -5 18 17 5z m-29 -21 c0 -5 -4 -10 -10 -10 -5
0 -10 5 -10 10 0 6 5 10 10 10 6 0 10 -4 10 -10z m85 -60 c-3 -5 -15 -10 -26
-10 -10 0 -19 5 -19 10 0 6 12 10 26 10 14 0 23 -4 19 -10z m-866 -61 c-16
-10 -60 -12 -83 -3 -30 11 -8 19 44 15 35 -2 48 -6 39 -12z m-824 -49 c3 -6
-5 -10 -19 -10 -14 0 -28 5 -31 10 -3 6 5 10 19 10 14 0 28 -4 31 -10z m-1947
-136 c25 -7 30 -24 7 -24 -8 0 -15 5 -15 10 0 6 -4 10 -10 10 -5 0 -10 -6 -10
-14 0 -12 -7 -13 -31 -6 -36 11 -55 26 -23 18 12 -3 28 -2 35 3 17 10 18 10
47 3z m85 -1 c-7 -2 -21 -2 -30 0 -10 3 -4 5 12 5 17 0 24 -2 18 -5z m-323
-12 c0 -5 -8 -11 -17 -15 -10 -3 -25 -9 -33 -12 -8 -3 -4 4 10 15 27 22 40 26
40 12z m95 -1 c-3 -5 -15 -10 -26 -10 -10 0 -19 5 -19 10 0 6 12 10 26 10 14
0 23 -4 19 -10z m-210 -10 c3 -5 -1 -10 -10 -10 -9 0 -13 5 -10 10 3 6 8 10
10 10 2 0 7 -4 10 -10z m175 -10 c13 -8 13 -10 -2 -10 -9 0 -20 5 -23 10 -8
13 5 13 25 0z m243 3 c-7 -2 -19 -2 -25 0 -7 3 -2 5 12 5 14 0 19 -2 13 -5z
m-176 -29 c-3 -3 -12 -4 -19 -1 -8 3 -5 6 6 6 11 1 17 -2 13 -5z m58 -22 c-11
-2 -26 -9 -32 -14 -7 -6 -13 -7 -13 -3 0 15 34 33 50 27 12 -5 11 -7 -5 -10z
m2498 -70 c-5 -14 -3 -15 8 -4 16 15 90 16 142 1 92 -25 9 -41 -228 -43 -88 0
-138 -2 -110 -4 27 -2 56 -8 63 -15 8 -6 54 -12 102 -13 102 -2 140 -16 68
-24 -71 -9 -277 5 -290 18 -15 15 -52 16 -43 2 10 -16 -65 -12 -81 5 -14 13
-12 15 18 16 18 1 40 2 48 3 8 2 26 3 40 5 23 1 24 2 6 13 -11 6 -40 12 -65
14 -25 2 -66 8 -91 14 -38 8 -30 9 50 6 53 -2 117 2 145 9 28 7 89 13 137 13
77 0 86 -2 81 -16z m-556 -18 c-3 -3 -12 -4 -19 -1 -8 3 -5 6 6 6 11 1 17 -2
13 -5z m563 -244 c0 -7 -14 -8 -37 -4 -52 9 -54 14 -5 14 23 0 42 -5 42 -10z
m68 3 c-10 -2 -26 -2 -35 0 -10 3 -2 5 17 5 19 0 27 -2 18 -5z m171 -3 c35 0
18 -12 -23 -16 -24 -3 -35 0 -40 12 -5 13 -2 15 16 10 13 -3 34 -6 47 -6z
m-989 -91 c0 -8 4 -8 14 0 13 11 61 -6 145 -54 16 -9 33 -10 54 -4 16 5 34 6
39 3 8 -5 64 -6 248 -2 153 2 301 -5 297 -15 -2 -7 -20 -13 -40 -15 -26 -2
-34 -7 -30 -18 4 -12 -25 -14 -193 -16 -110 -1 -230 -1 -268 1 -53 2 -67 0
-61 -9 6 -9 4 -11 -5 -5 -19 12 -69 14 -76 4 -7 -13 -151 -9 -204 5 -25 7 -78
11 -118 10 -54 -2 -72 0 -69 9 2 7 17 11 33 9 22 -2 26 0 14 8 -8 5 -10 10 -5
11 6 0 2 4 -8 8 -10 4 -18 11 -17 15 1 5 -4 13 -12 17 -10 7 -9 9 3 9 23 0 86
-27 91 -39 2 -6 18 -7 38 -2 19 4 33 11 32 15 -8 19 23 23 54 8 44 -20 56 -7
22 23 -34 30 -35 35 -3 35 14 0 25 -5 25 -11z m1134 -23 c-6 -16 -34 -30 -34
-18 0 10 22 32 32 32 4 0 5 -6 2 -14z m-144 -16 c0 -5 8 -10 18 -10 14 0 15 2
2 10 -11 7 -4 10 27 10 23 0 45 -5 49 -11 5 -8 -3 -10 -25 -7 -17 2 -31 1 -31
-4 0 -14 -41 -9 -56 7 -14 13 -14 15 0 15 9 0 16 -4 16 -10z m-72 -27 c-10 -2
-28 -2 -40 0 -13 2 -5 4 17 4 22 1 32 -1 23 -4z m-1228 -33 c0 -12 -27 -12
-55 0 -16 7 -13 9 18 9 20 1 37 -3 37 -9z m707 -66 c-3 -3 -12 -4 -19 -1 -8 3
-5 6 6 6 11 1 17 -2 13 -5z m133 -72 c0 -5 -7 -9 -15 -9 -8 0 -12 4 -9 9 3 4
9 8 15 8 5 0 9 -4 9 -8z m-10 -32 c0 -5 -5 -10 -11 -10 -5 0 -7 5 -4 10 3 6 8
10 11 10 2 0 4 -4 4 -10z m313 -16 c-5 -14 -45 -13 -50 2 -2 7 8 11 25 10 17
-1 28 -6 25 -12z m95 4 c10 -10 15 -10 22 2 7 11 12 12 21 3 6 -6 18 -9 26 -6
8 3 25 0 38 -7 17 -9 46 -11 95 -7 38 3 70 4 70 2 0 -2 -3 -10 -6 -19 -5 -12
-19 -14 -82 -9 -43 2 -93 8 -112 12 -19 4 -56 6 -82 4 -43 -3 -48 -1 -48 17 0
23 38 28 58 8z m200 -5 c-10 -2 -28 -2 -40 0 -13 2 -5 4 17 4 22 1 32 -1 23
-4z m102 -33 c0 -5 -8 -10 -17 -10 -15 0 -16 2 -3 10 19 12 20 12 20 0z m724
-6 c19 -7 22 -44 4 -44 -7 0 -23 -3 -34 -6 -16 -4 -23 0 -26 14 -9 33 18 50
56 36z m-784 -104 c0 -10 -31 -23 -38 -15 -8 7 19 35 29 29 5 -3 9 -9 9 -14z
m60 -20 c0 -5 -2 -10 -4 -10 -3 0 -8 5 -11 10 -3 6 -1 10 4 10 6 0 11 -4 11
-10z m-253 -17 c20 4 31 2 28 -4 -8 -11 -115 -12 -115 -1 0 17 13 21 33 11 11
-6 35 -9 54 -6z m-1968 -92 c35 -7 56 -31 27 -31 -9 0 -16 4 -16 10 0 5 -17
12 -37 15 -21 4 -47 10 -58 15 -20 9 5 6 84 -9z m876 -1 c3 -5 1 -10 -4 -10
-6 0 -11 5 -11 10 0 6 2 10 4 10 3 0 8 -4 11 -10z"/>
<path d="M4198 1693 c7 -3 16 -2 19 1 4 3 -2 6 -13 5 -11 0 -14 -3 -6 -6z"/>
<path d="M3905 1670 c-3 -5 3 -10 15 -10 12 0 18 5 15 10 -3 6 -10 10 -15 10
-5 0 -12 -4 -15 -10z"/>
<path d="M4088 883 c7 -3 16 -2 19 1 4 3 -2 6 -13 5 -11 0 -14 -3 -6 -6z"/>
<path d="M5600 2700 c0 -5 16 -10 35 -10 19 0 35 4 35 8 0 4 -16 9 -35 10 -19
2 -35 -2 -35 -8z"/>
<path d="M4690 2680 c8 -5 20 -10 25 -10 6 0 3 5 -5 10 -8 5 -19 10 -25 10 -5
0 -3 -5 5 -10z"/>
<path d="M5481 2662 c-7 -12 -26 -17 -72 -19 -34 -1 -67 -7 -72 -12 -6 -6 -16
-6 -27 1 -10 7 -35 8 -63 4 -48 -7 -65 -26 -24 -26 13 0 28 -5 34 -11 8 -8 13
-8 17 0 4 6 17 11 29 10 21 0 21 -1 2 -9 -11 -5 -14 -9 -7 -9 7 -1 23 4 34 10
14 8 23 8 31 0 13 -13 30 -15 23 -2 -3 5 2 12 11 16 10 3 19 1 21 -4 2 -6 10
-11 18 -11 7 0 11 6 8 14 -4 11 3 13 33 11 21 -2 39 -9 41 -14 6 -17 42 -13
42 5 0 13 9 14 55 9 54 -7 55 -7 55 18 0 29 -14 37 -51 26 -17 -4 -31 -3 -38
4 -9 9 -14 8 -21 -3 -7 -12 -15 -13 -40 -3 -25 9 -31 9 -39 -5z m-201 -42 c0
-5 -7 -10 -15 -10 -8 0 -15 5 -15 10 0 6 7 10 15 10 8 0 15 -4 15 -10z"/>
<path d="M5585 2611 c-2 -5 8 -11 23 -14 35 -7 38 -3 7 11 -13 6 -27 7 -30 3z"/>
<path d="M4640 2450 c0 -5 7 -7 15 -4 8 4 15 8 15 10 0 2 -7 4 -15 4 -8 0 -15
-4 -15 -10z"/>
<path d="M5010 2450 c0 -5 7 -10 16 -10 8 0 12 5 9 10 -3 6 -10 10 -16 10 -5
0 -9 -4 -9 -10z"/>
<path d="M4848 2433 c7 -3 16 -2 19 1 4 3 -2 6 -13 5 -11 0 -14 -3 -6 -6z"/>
<path d="M4755 2399 c-4 -6 -5 -12 -2 -15 2 -3 7 2 10 11 7 17 1 20 -8 4z"/>
<path d="M4960 2366 c0 -2 18 -6 40 -8 22 -2 40 0 40 4 0 5 -18 8 -40 8 -22 0
-40 -2 -40 -4z"/>
<path d="M4870 2344 c0 -14 3 -14 15 -4 8 7 15 14 15 16 0 2 -7 4 -15 4 -8 0
-15 -7 -15 -16z"/>
<path d="M4920 2350 c0 -5 5 -10 10 -10 6 0 10 5 10 10 0 6 -4 10 -10 10 -5 0
-10 -4 -10 -10z"/>
<path d="M3618 53 c6 -2 18 -2 25 0 6 3 1 5 -13 5 -14 0 -19 -2 -12 -5z"/>
<path d="M3765 40 c-4 -6 11 -10 37 -10 31 0 39 3 28 10 -20 13 -57 13 -65 0z"/>
<path d="M4080 30 c0 -5 -19 -10 -42 -10 -66 0 -36 -12 41 -16 66 -4 71 -3 71
16 0 25 -9 26 -26 3 -13 -17 -13 -17 -14 0 0 18 -30 25 -30 7z"/>
</g>
</svg>
